<svg width="491" height="59" viewBox="0 0 491 59" fill="none" xmlns="http://www.w3.org/2000/svg">
<path d="M7.56 58.72C5.21333 58.72 3.37333 58.08 2.04 56.8C0.759995 55.4667 0.119995 53.5733 0.119995 51.12V9.20001C0.119995 6.74667 0.759995 4.88001 2.04 3.60001C3.37333 2.26667 5.29333 1.60001 7.8 1.60001H34.44C36.36 1.60001 37.8 2.08001 38.76 3.04001C39.72 4.00001 40.2 5.38667 40.2 7.2C40.2 9.06667 39.72 10.5067 38.76 11.52C37.8 12.48 36.36 12.96 34.44 12.96H14.84V24.32H32.68C34.5467 24.32 35.96 24.8 36.92 25.76C37.9333 26.72 38.44 28.1067 38.44 29.92C38.44 31.7867 37.9333 33.2 36.92 34.16C35.96 35.12 34.5467 35.6 32.68 35.6H14.84V51.12C14.84 56.1867 12.4133 58.72 7.56 58.72Z" fill="#3543C6"/>
<path d="M54.1281 58C51.6215 58 49.7015 57.36 48.3681 56.08C47.0881 54.7467 46.4481 52.8533 46.4481 50.4V9.20001C46.4481 6.74667 47.0881 4.88001 48.3681 3.60001C49.7015 2.26667 51.6215 1.60001 54.1281 1.60001H81.2481C83.1681 1.60001 84.6081 2.08001 85.5681 3.04001C86.5281 4.00001 87.0081 5.38667 87.0081 7.2C87.0081 9.06667 86.5281 10.5067 85.5681 11.52C84.6081 12.48 83.1681 12.96 81.2481 12.96H60.5281V23.68H79.4881C81.3548 23.68 82.7681 24.16 83.7281 25.12C84.7415 26.08 85.2481 27.4933 85.2481 29.36C85.2481 31.2267 84.7415 32.64 83.7281 33.6C82.7681 34.56 81.3548 35.04 79.4881 35.04H60.5281V46.64H81.2481C83.1681 46.64 84.6081 47.1467 85.5681 48.16C86.5281 49.12 87.0081 50.5067 87.0081 52.32C87.0081 54.1867 86.5281 55.6 85.5681 56.56C84.6081 57.52 83.1681 58 81.2481 58H54.1281Z" fill="#3543C6"/>
<path d="M103.029 58C100.682 58 98.8421 57.36 97.5087 56.08C96.2287 54.7467 95.5887 52.9067 95.5887 50.56V8.96001C95.5887 6.56 96.2287 4.72 97.5087 3.44001C98.7887 2.16001 100.602 1.52001 102.949 1.52001C105.349 1.52001 107.162 2.16001 108.389 3.44001C109.669 4.72 110.309 6.56 110.309 8.96001V45.76H129.829C131.855 45.76 133.402 46.2933 134.469 47.36C135.589 48.3733 136.149 49.8667 136.149 51.84C136.149 53.8133 135.589 55.3333 134.469 56.4C133.402 57.4667 131.855 58 129.829 58H103.029Z" fill="#3543C6"/>
<path d="M149.746 58.72C147.399 58.72 145.586 58.08 144.306 56.8C143.026 55.4667 142.386 53.6 142.386 51.2V8.40001C142.386 5.94667 143.026 4.08001 144.306 2.8C145.586 1.52 147.399 0.880005 149.746 0.880005C152.146 0.880005 153.959 1.52 155.186 2.8C156.466 4.08001 157.106 5.94667 157.106 8.40001V51.2C157.106 53.6 156.492 55.4667 155.266 56.8C154.039 58.08 152.199 58.72 149.746 58.72Z" fill="#3543C6"/>
<path d="M174.667 58.72C172.321 58.72 170.507 58.08 169.227 56.8C167.947 55.4667 167.307 53.6267 167.307 51.28V9.04C167.307 6.64001 167.947 4.80001 169.227 3.52C170.561 2.24 172.401 1.60001 174.747 1.60001H194.427C200.827 1.60001 205.761 3.25334 209.227 6.56001C212.747 9.81334 214.507 14.32 214.507 20.08C214.507 25.84 212.747 30.3733 209.227 33.68C205.761 36.9333 200.827 38.56 194.427 38.56H182.027V51.28C182.027 53.6267 181.414 55.4667 180.188 56.8C178.961 58.08 177.121 58.72 174.667 58.72ZM182.027 27.28H191.867C194.641 27.28 196.774 26.6933 198.268 25.52C199.761 24.2933 200.507 22.48 200.507 20.08C200.507 17.6267 199.761 15.8133 198.268 14.64C196.774 13.4667 194.641 12.88 191.867 12.88H182.027V27.28Z" fill="#3543C6"/>
<path d="M229.05 58C226.543 58 224.623 57.36 223.29 56.08C222.01 54.7467 221.37 52.8533 221.37 50.4V9.20001C221.37 6.74667 222.01 4.88001 223.29 3.60001C224.623 2.26667 226.543 1.60001 229.05 1.60001H256.17C258.09 1.60001 259.53 2.08001 260.49 3.04001C261.45 4.00001 261.93 5.38667 261.93 7.2C261.93 9.06667 261.45 10.5067 260.49 11.52C259.53 12.48 258.09 12.96 256.17 12.96H235.45V23.68H254.41C256.277 23.68 257.69 24.16 258.65 25.12C259.663 26.08 260.17 27.4933 260.17 29.36C260.17 31.2267 259.663 32.64 258.65 33.6C257.69 34.56 256.277 35.04 254.41 35.04H235.45V46.64H256.17C258.09 46.64 259.53 47.1467 260.49 48.16C261.45 49.12 261.93 50.5067 261.93 52.32C261.93 54.1867 261.45 55.6 260.49 56.56C259.53 57.52 258.09 58 256.17 58H229.05Z" fill="#3543C6"/>
<path d="M300.841 58C298.495 58 296.655 57.36 295.321 56.08C294.041 54.7467 293.401 52.9067 293.401 50.56V8.96001C293.401 6.56 294.041 4.72 295.321 3.44001C296.601 2.16001 298.415 1.52001 300.761 1.52001C303.161 1.52001 304.975 2.16001 306.201 3.44001C307.481 4.72 308.121 6.56 308.121 8.96001V45.76H327.641C329.668 45.76 331.215 46.2933 332.281 47.36C333.401 48.3733 333.961 49.8667 333.961 51.84C333.961 53.8133 333.401 55.3333 332.281 56.4C331.215 57.4667 329.668 58 327.641 58H300.841Z" fill="#3543C6"/>
<path d="M347.558 58.72C345.211 58.72 343.398 58.08 342.118 56.8C340.838 55.4667 340.198 53.6 340.198 51.2V8.40001C340.198 5.94667 340.838 4.08001 342.118 2.8C343.398 1.52 345.211 0.880005 347.558 0.880005C349.958 0.880005 351.771 1.52 352.998 2.8C354.278 4.08001 354.918 5.94667 354.918 8.40001V51.2C354.918 53.6 354.305 55.4667 353.078 56.8C351.851 58.08 350.011 58.72 347.558 58.72Z" fill="#3543C6"/>
<path d="M371.92 58.72C369.787 58.72 368.133 58.1333 366.96 56.96C365.84 55.7867 365.28 54.1333 365.28 52V7.6C365.28 5.41334 365.893 3.76001 367.12 2.64001C368.347 1.46667 370.08 0.880005 372.32 0.880005C374.187 0.880005 375.653 1.25334 376.72 2C377.84 2.69334 378.853 3.86667 379.76 5.52001L396.96 36.4H394.16L411.28 5.52001C412.24 3.86667 413.253 2.69334 414.32 2C415.44 1.25334 416.933 0.880005 418.8 0.880005C420.933 0.880005 422.56 1.46667 423.68 2.64001C424.853 3.76001 425.44 5.41334 425.44 7.6V52C425.44 54.1333 424.88 55.7867 423.76 56.96C422.64 58.1333 420.987 58.72 418.8 58.72C416.667 58.72 415.013 58.1333 413.84 56.96C412.72 55.7867 412.16 54.1333 412.16 52V24.48H413.84L400.96 46.88C400.213 48.0533 399.413 48.9333 398.56 49.52C397.76 50.1067 396.667 50.4 395.28 50.4C393.947 50.4 392.853 50.1067 392 49.52C391.147 48.9333 390.373 48.0533 389.68 46.88L376.72 24.4H378.56V52C378.56 54.1333 378 55.7867 376.88 56.96C375.76 58.1333 374.107 58.72 371.92 58.72Z" fill="#3543C6"/>
<path d="M438.463 58.72C436.81 58.72 435.423 58.3467 434.303 57.6C433.183 56.8 432.49 55.7333 432.223 54.4C431.956 53.0133 432.196 51.4667 432.943 49.76L452.863 6.88C453.823 4.80001 454.996 3.28001 456.383 2.32001C457.823 1.36001 459.45 0.880005 461.263 0.880005C463.076 0.880005 464.65 1.36001 465.983 2.32001C467.37 3.28001 468.57 4.80001 469.583 6.88L489.503 49.76C490.356 51.4667 490.65 53.0133 490.383 54.4C490.17 55.7867 489.503 56.8533 488.383 57.6C487.316 58.3467 485.983 58.72 484.383 58.72C482.25 58.72 480.596 58.24 479.423 57.28C478.303 56.32 477.29 54.7733 476.383 52.64L472.063 42.48L477.663 46.56H444.703L450.383 42.48L446.063 52.64C445.103 54.7733 444.116 56.32 443.103 57.28C442.09 58.24 440.543 58.72 438.463 58.72ZM461.103 16.96L451.823 39.12L449.583 35.28H472.863L470.623 39.12L461.263 16.96H461.103Z" fill="#3543C6"/>
</svg>
